<svg id="Capa_1" enable-background="new 0 0 512 512" height="512" viewBox="0 0 512 512" width="512" xmlns="http://www.w3.org/2000/svg"><g><path d="m134.5 0c-24.62 0-46.318 12.085-60 30.463-9.3 12.491-15 27.805-15 44.537v241c0 8.291 6.709 15 15 15s15-6.709 15-15v-241c0-24.814 20.186-45 45-45s45 20.186 45 45v30c0 8.291 6.709 15 15 15s15-6.709 15-15v-30c0-41.353-33.647-75-75-75z" fill="#ecf2ff"/><path d="m89.5 316v-241c0-24.814 20.186-45 45-45s45 20.186 45 45v30c0 8.291 6.709 15 15 15s15-6.709 15-15v-30c0-41.353-33.647-75-75-75-24.62 0-46.318 12.085-60 30.463v300.537c8.291 0 15-6.709 15-15z" fill="#d9e5ff"/><path d="m119.5 316v181h-90v-181c0-8.401 6.599-15 15-15h60c8.401 0 15 6.599 15 15z" fill="#465a61"/><path d="m119.5 316v181h-45v-196h30c8.401 0 15 6.599 15 15z" fill="#3b4a51"/><g><path d="m436.5 421c-8.291 0-15-6.709-15-15v-90c0-8.291 6.709-15 15-15s15 6.709 15 15v90c0 8.291-6.709 15-15 15z" fill="#804540"/></g><g><path d="m466.5 512c-8.291 0-15-6.709-15-15v-61c0-8.291 6.709-15 15-15s15 6.709 15 15v61c0 8.291-6.709 15-15 15z" fill="#804540"/></g><g><path d="m254.5 421c-8.291 0-15-6.709-15-15v-90c0-8.291 6.709-15 15-15s15 6.709 15 15v90c0 8.291-6.709 15-15 15z" fill="#995a4d"/></g><g><path d="m224.5 512c-8.291 0-15-6.709-15-15v-61c0-8.291 6.709-15 15-15s15 6.709 15 15v61c0 8.291-6.709 15-15 15z" fill="#995a4d"/></g><g><path d="m496.5 241h-302c-8.401 0-15 6.599-15 15v60c0 8.401 6.599 15 15 15h302c8.401 0 15-6.599 15-15v-60c0-8.401-6.599-15-15-15z" fill="#b37059"/></g><g><path d="m496.5 391h-302c-8.401 0-15 6.599-15 15v30c0 8.401 6.599 15 15 15h302c8.401 0 15-6.599 15-15v-30c0-8.401-6.599-15-15-15z" fill="#b37059"/></g><g><path d="m254.5 181h-120c-8.291 0-15-6.709-15-15 0-41.353 33.647-76 75-76s75 34.647 75 76c0 8.291-6.709 15-15 15z" fill="#465a61"/></g><path d="m511.5 256v60c0 8.401-6.599 15-15 15h-151v-90h151c8.401 0 15 6.599 15 15z" fill="#995a4d"/><path d="m511.5 406v30c0 8.401-6.599 15-15 15h-151v-60h151c8.401 0 15 6.599 15 15z" fill="#995a4d"/><g><path d="m149.5 497c0 8.401-6.599 15-15 15h-120c-8.401 0-14-6.599-14-15s5.599-15 14-15h120c8.401 0 15 6.599 15 15z" fill="#93e98f"/></g><path d="m149.5 497c0 8.401-6.599 15-15 15h-60v-30h60c8.401 0 15 6.599 15 15z" fill="#5ec97f"/></g></svg>
